<?xml version="1.0" standalone="no"?>
<!DOCTYPE svg PUBLIC "-//W3C//DTD SVG 20010904//EN"
 "http://www.w3.org/TR/2001/REC-SVG-20010904/DTD/svg10.dtd">
<svg version="1.0" xmlns="http://www.w3.org/2000/svg"
 width="1200.000000pt" height="675.000000pt" viewBox="0 0 1200.000000 675.000000"
 preserveAspectRatio="xMidYMid meet">
<metadata>
Created by potrace 1.16, written by Peter Selinger 2001-2019
</metadata>
<g transform="translate(0.000000,675.000000) scale(0.100000,-0.100000)"
fill="#000000" stroke="none">
<path d="M1217 6182 c-9 -10 -17 -28 -17 -40 0 -12 -9 -30 -20 -39 -23 -20
-26 -43 -5 -43 11 0 15 -20 17 -97 3 -93 4 -98 26 -101 22 -3 22 -1 22 97 l0
101 31 0 c24 0 30 4 27 18 -2 10 -14 18 -31 20 -24 3 -28 7 -25 30 2 22 9 28
36 30 25 3 32 8 30 20 -5 25 -69 28 -91 4z"/>
<path d="M2154 6187 c-2 -7 -3 -82 -2 -167 3 -152 3 -155 26 -158 12 -2 22 2
22 8 0 7 8 5 22 -4 42 -30 96 -13 123 39 27 49 17 141 -19 172 -31 27 -72 30
-104 7 l-22 -15 0 65 c0 60 -2 66 -20 66 -11 0 -23 -6 -26 -13z m140 -143 c24
-23 21 -109 -4 -134 -25 -25 -31 -25 -64 1 -21 16 -26 29 -26 64 0 68 55 109
94 69z"/>
<path d="M2414 6187 c-2 -7 -3 -82 -2 -167 3 -152 3 -155 26 -158 l22 -3 0
170 c0 165 -1 171 -20 171 -11 0 -23 -6 -26 -13z"/>
<path d="M325 6170 c-57 -23 -93 -110 -81 -193 14 -90 88 -141 173 -118 46 13
68 33 59 56 -5 15 -8 15 -28 1 -12 -9 -41 -16 -64 -16 -34 0 -47 5 -63 25 -40
52 -38 149 5 192 27 27 80 31 110 8 27 -20 34 -19 34 8 0 40 -86 62 -145 37z"/>
<path d="M1773 6153 c-7 -3 -13 -15 -13 -28 0 -12 -7 -25 -15 -29 -8 -3 -15
-12 -15 -21 0 -8 7 -15 15 -15 12 0 15 -14 15 -69 0 -81 11 -115 40 -131 31
-17 70 -5 70 21 0 15 -4 19 -16 15 -32 -12 -44 13 -44 90 l0 74 31 0 c24 0 30
4 27 18 -2 10 -14 18 -31 20 -21 3 -27 9 -27 27 0 24 -16 35 -37 28z"/>
<path d="M573 6090 c-13 -5 -32 -24 -43 -42 -29 -45 -23 -127 10 -163 45 -48
128 -42 170 13 22 28 28 119 10 153 -22 40 -95 60 -147 39z m84 -38 c38 -24
37 -121 0 -147 -50 -35 -97 -1 -97 70 0 66 51 106 97 77z"/>
<path d="M784 6087 c-2 -7 -3 -60 -2 -118 3 -99 4 -104 26 -107 21 -3 22 -1
22 77 0 68 3 84 20 101 22 22 37 25 60 10 11 -7 16 -33 18 -100 4 -81 6 -90
23 -90 17 0 19 8 19 78 0 69 3 81 23 100 53 50 77 19 77 -97 0 -80 0 -81 25
-81 24 0 25 2 25 73 0 119 -23 166 -81 167 -15 0 -37 -9 -50 -19 -24 -19 -25
-19 -48 0 -28 23 -59 24 -88 4 -19 -13 -22 -13 -27 0 -7 19 -35 20 -42 2z"/>
<path d="M1373 6090 c-13 -5 -32 -24 -43 -42 -29 -45 -23 -127 10 -163 45 -48
128 -42 170 13 22 28 28 119 10 153 -22 40 -95 60 -147 39z m84 -38 c38 -24
37 -121 0 -147 -50 -35 -97 -1 -97 70 0 66 51 106 97 77z"/>
<path d="M1584 6087 c-2 -7 -3 -60 -2 -118 3 -99 4 -104 26 -107 21 -3 22 -1
22 77 0 73 2 81 25 99 15 12 34 18 46 15 17 -5 20 -2 17 18 -4 30 -42 38 -68
14 -16 -14 -18 -14 -23 0 -8 18 -36 20 -43 2z"/>
<path d="M1940 6087 c-14 -7 -26 -21 -28 -31 -3 -16 0 -18 19 -11 73 22 109
14 109 -26 0 -14 -7 -19 -29 -19 -41 0 -90 -19 -101 -40 -36 -68 37 -133 108
-96 22 11 32 12 34 4 2 -6 12 -9 21 -5 14 5 17 20 17 80 0 90 -14 135 -47 148
-34 12 -73 11 -103 -4z"/>
<path d="M2573 6090 c-40 -16 -65 -68 -60 -128 6 -89 65 -127 156 -102 32 8
41 15 39 28 -3 9 -11 15 -19 13 -59 -14 -88 -12 -108 8 -38 38 -28 51 42 51
38 0 71 6 82 14 17 12 18 18 7 55 -18 60 -77 86 -139 61z"/>
<path d="M750 5642 c-84 -84 -58 -248 46 -282 40 -13 97 -6 132 17 32 20 62
89 61 143 -1 107 -50 160 -147 160 -50 0 -58 -3 -92 -38z m157 -26 c26 -22 28
-30 28 -95 0 -63 -3 -73 -26 -97 -29 -28 -80 -35 -117 -15 -22 12 -42 66 -42
114 0 38 24 93 47 106 32 18 80 13 110 -13z"/>
<path d="M1044 5587 c-2 -7 -3 -60 -2 -118 3 -99 4 -104 26 -107 21 -3 22 -1
22 77 0 73 2 81 25 99 15 12 34 18 46 15 17 -5 20 -2 17 18 -4 30 -42 38 -68
14 -16 -14 -18 -14 -23 0 -8 18 -36 20 -43 2z"/>
<path d="M1348 5581 c-31 -25 -42 -60 -28 -95 6 -16 6 -27 0 -31 -13 -8 -13
-52 0 -60 6 -4 4 -15 -6 -30 -34 -52 6 -95 87 -95 75 0 122 44 105 98 -8 26
-28 34 -95 41 -70 8 -82 31 -16 31 62 0 100 35 92 86 -4 26 -2 34 9 34 9 0 14
7 12 18 -5 28 -125 30 -160 3z"/>
<path d="M1580 5587 c-14 -7 -26 -21 -28 -31 -3 -16 0 -18 19 -11 73 22 109
14 109 -26 0 -14 -7 -19 -29 -19 -41 0 -90 -19 -101 -40 -36 -68 37 -133 108
-96 22 11 32 12 34 4 2 -6 12 -9 21 -5 14 5 17 20 17 80 0 90 -14 135 -47 148
-34 12 -73 11 -103 -4z"/>
<path d="M1794 5587 c-2 -7 -3 -60 -2 -118 3 -99 4 -104 26 -107 21 -3 22 -1
22 77 0 68 3 84 20 101 22 22 37 25 60 10 11 -7 16 -33 18 -100 4 -81 6 -90
23 -90 17 0 19 8 19 78 0 69 3 81 23 100 53 50 77 19 77 -97 0 -80 0 -81 25
-81 24 0 25 2 25 73 0 119 -23 166 -81 167 -15 0 -37 -9 -50 -19 -24 -19 -25
-19 -48 0 -28 23 -59 24 -88 4 -19 -13 -22 -13 -27 0 -7 19 -35 20 -42 2z"/>
<path d="M517 5174 c-4 -4 -7 -76 -7 -161 l0 -153 91 0 c81 0 90 2 87 18 -3
14 -16 18 -66 20 l-62 3 0 49 0 49 52 3 c41 2 54 7 56 21 3 14 -5 17 -52 17
l-56 0 0 50 0 50 66 0 c57 0 65 2 62 18 -3 14 -16 17 -84 20 -44 1 -83 0 -87
-4z"/>
<path d="M1283 5168 c-30 -15 -47 -60 -36 -95 9 -27 35 -48 102 -85 24 -13 31
-24 31 -48 0 -43 -39 -58 -94 -36 -42 17 -61 10 -50 -17 10 -26 80 -41 126
-28 46 14 68 44 68 92 0 41 -17 61 -88 99 -49 26 -62 51 -42 75 14 17 63 20
91 5 27 -15 40 17 14 36 -22 16 -90 17 -122 2z"/>
<path d="M760 5087 c-14 -7 -26 -21 -28 -31 -3 -16 0 -18 19 -11 73 22 109 14
109 -26 0 -14 -7 -19 -29 -19 -41 0 -90 -19 -101 -40 -36 -68 37 -133 108 -96
22 11 32 12 34 4 2 -6 12 -9 21 -5 14 5 17 20 17 80 0 90 -14 135 -47 148 -34
12 -73 11 -103 -4z"/>
<path d="M974 5087 c-2 -7 -3 -60 -2 -118 3 -99 4 -104 26 -107 21 -3 22 -1
22 77 0 73 2 81 25 99 15 12 34 18 46 15 17 -5 20 -2 17 18 -4 30 -42 38 -68
14 -16 -14 -18 -14 -23 0 -8 18 -36 20 -43 2z"/>
<path d="M1510 5087 c-14 -7 -26 -21 -28 -31 -3 -16 0 -18 19 -11 73 22 109
14 109 -26 0 -14 -7 -19 -29 -19 -41 0 -90 -19 -101 -40 -36 -68 37 -133 108
-96 22 11 32 12 34 4 2 -6 12 -9 21 -5 14 5 17 20 17 80 0 90 -14 135 -47 148
-34 12 -73 11 -103 -4z"/>
<path d="M1690 5088 c0 -7 17 -62 37 -121 37 -106 38 -108 67 -105 28 3 31 9
68 112 25 71 35 113 29 119 -20 20 -37 -4 -66 -93 l-29 -92 -28 82 c-15 45
-33 88 -39 96 -14 17 -39 18 -39 2z"/>
<path d="M1993 5090 c-40 -16 -65 -68 -60 -128 6 -89 65 -127 156 -102 32 8
41 15 39 28 -3 9 -11 15 -19 13 -59 -14 -88 -12 -108 8 -38 38 -28 51 42 51
38 0 71 6 82 14 17 12 18 18 7 55 -18 60 -77 86 -139 61z"/>
<path d="M2194 5087 c-2 -7 -3 -60 -2 -118 3 -99 4 -104 26 -107 21 -3 22 -1
22 77 0 73 2 81 25 99 15 12 34 18 46 15 17 -5 20 -2 17 18 -4 30 -42 38 -68
14 -16 -14 -18 -14 -23 0 -8 18 -36 20 -43 2z"/>
<path d="M1680 4488 c-24 -26 -27 -84 -4 -116 11 -16 25 -22 53 -22 49 0 76
28 76 80 0 24 -8 46 -19 59 -26 28 -79 28 -106 -1z"/>
<path d="M1950 4430 c0 -94 18 -108 22 -17 l3 62 24 -62 c13 -35 29 -63 36
-63 7 0 24 28 38 63 l26 62 1 -62 c0 -50 3 -63 15 -63 13 0 15 13 13 77 -3 65
-6 78 -21 81 -13 3 -24 -11 -44 -58 l-27 -61 -24 61 c-18 44 -29 60 -43 60
-17 0 -19 -8 -19 -80z"/>
<path d="M7930 4113 c0 -5 -4 -25 -9 -46 -8 -32 -6 -39 10 -48 14 -7 19 -7 17
2 -2 6 3 14 10 16 7 3 11 1 10 -4 -5 -14 26 -48 47 -51 11 -2 25 -9 30 -17 11
-13 80 -32 99 -27 5 2 6 -6 3 -17 -8 -34 18 -46 50 -23 15 10 40 21 54 24 l26
5 -29 -65 c-16 -35 -27 -66 -24 -69 2 -3 16 6 29 18 24 24 53 107 45 131 -3 7
2 19 9 26 33 33 -70 76 -162 69 -49 -4 -55 -2 -55 14 0 11 -2 19 -4 19 -2 0
-11 3 -20 6 -11 4 -16 1 -16 -11 0 -13 -10 -9 -49 19 -47 35 -71 44 -71 29z"/>
<path d="M10988 3797 c-42 -67 -143 -241 -226 -387 -82 -146 -177 -312 -210
-368 -34 -57 -62 -106 -62 -108 0 -7 65 9 71 18 3 6 10 9 15 7 5 -1 14 9 21
21 6 13 27 37 47 54 22 21 37 44 41 66 3 19 10 37 16 38 5 2 9 10 9 18 0 7 14
40 32 71 17 32 47 87 66 123 19 36 43 77 53 92 11 14 19 31 19 37 0 6 5 11 11
11 5 0 8 4 4 9 -7 12 51 110 79 133 12 10 30 15 42 12 11 -3 26 1 32 9 7 8 32
22 57 32 41 18 68 45 44 45 -7 0 -4 11 5 26 10 14 16 32 14 41 -2 10 -27 -12
-71 -61 -66 -74 -91 -89 -100 -63 -4 12 22 90 57 171 10 21 16 46 14 56 -2 12
-30 -24 -80 -103z"/>
<path d="M1850 3604 c47 -13 180 -49 295 -79 324 -84 460 -124 463 -135 2 -5
9 -7 15 -3 7 4 6 -1 -2 -10 -7 -9 -19 -17 -25 -17 -6 0 -35 -25 -65 -55 -30
-30 -58 -55 -63 -55 -5 0 -7 -4 -4 -9 3 -4 -13 -29 -37 -53 -23 -25 -60 -72
-81 -104 -21 -32 -47 -71 -57 -86 -11 -15 -19 -34 -19 -42 0 -9 -9 -20 -20
-26 -11 -6 -20 -16 -20 -22 0 -6 6 -5 17 3 15 13 15 12 3 -11 -7 -14 -24 -42
-37 -64 -14 -21 -20 -35 -14 -32 17 11 13 -9 -8 -35 -10 -13 -22 -35 -26 -48
-10 -32 -40 -82 -46 -76 -3 2 -6 -6 -6 -18 -2 -19 0 -18 22 8 13 17 24 26 25
22 0 -15 -31 -81 -42 -88 -15 -10 -38 -87 -31 -105 3 -8 1 -14 -5 -14 -10 0
-31 -68 -34 -112 -3 -32 -22 -37 -38 -10 -9 13 -10 10 -5 -19 6 -40 -2 -72
-16 -63 -5 3 -12 -2 -15 -10 -3 -9 -12 -16 -20 -16 -8 0 -14 -4 -14 -10 0 -5
-7 -10 -15 -10 -8 0 -15 -7 -15 -15 0 -9 6 -12 18 -8 9 3 14 3 10 -1 -3 -4
-14 -9 -25 -10 -10 -2 -19 -13 -21 -24 -4 -24 -37 -31 -45 -9 -4 9 -6 9 -6 -1
-1 -8 -6 -10 -13 -6 -10 6 -10 4 0 -7 14 -15 16 -33 3 -25 -5 3 -22 -1 -37 -9
-22 -11 -30 -12 -36 -2 -5 8 -8 7 -8 -5 0 -12 -8 -16 -30 -16 -33 1 -63 -19
-53 -35 4 -6 0 -8 -10 -4 -11 4 -17 1 -17 -9 0 -8 -4 -12 -10 -9 -5 3 -10 1
-10 -4 0 -6 -12 -11 -26 -11 -14 0 -23 -4 -20 -9 3 -5 -2 -12 -11 -15 -9 -4
-20 -1 -25 6 -5 8 -8 9 -8 2 0 -7 -13 -10 -30 -9 -28 2 -36 -7 -31 -38 1 -4
-7 -3 -18 2 -15 8 -20 7 -25 -5 -3 -9 -13 -14 -21 -10 -8 3 -17 1 -21 -5 -3
-6 -11 -3 -19 8 -12 15 -16 16 -27 4 -7 -8 -8 -11 -2 -8 6 3 11 0 11 -7 0 -8
-6 -12 -14 -9 -7 3 -20 0 -28 -7 -13 -11 -14 -10 -10 1 3 9 -3 14 -20 15 -21
2 -22 0 -10 -13 22 -21 18 -39 -4 -19 -17 15 -20 15 -34 2 -12 -12 -17 -13
-20 -3 -4 9 -6 9 -6 0 -1 -7 -8 -13 -16 -13 -8 0 -15 6 -16 13 -1 6 -7 -8 -14
-33 -8 -26 -13 -36 -14 -23 -1 12 -6 25 -12 28 -6 5 -4 12 8 20 23 18 -2 15
-36 -4 -12 -7 -31 -11 -41 -8 -13 3 -16 0 -12 -16 3 -14 1 -18 -6 -13 -7 4
-12 13 -12 21 0 7 -7 15 -15 19 -8 3 -15 1 -15 -5 0 -6 -4 -8 -9 -5 -5 4 -7
-3 -4 -14 3 -10 -2 -26 -10 -35 -14 -13 -17 -13 -31 0 -18 18 -33 20 -18 2 6
-7 7 -19 3 -26 -6 -9 -10 -7 -14 9 -6 24 -28 23 -36 -1 -4 -12 -2 -12 12 0 15
11 17 11 17 -2 0 -19 -12 -28 -52 -34 -22 -3 -28 -1 -23 8 5 7 3 10 -6 7 -8
-3 -15 -13 -17 -24 -2 -12 0 -15 5 -8 4 6 16 8 26 5 18 -7 18 -8 1 -21 -10 -8
-15 -10 -11 -4 4 7 -2 12 -18 12 -14 0 -25 -4 -25 -9 0 -5 7 -9 15 -9 8 0 15
-8 15 -17 0 -15 2 -16 10 -3 5 8 10 11 10 5 0 -5 -5 -17 -10 -25 -5 -8 -10
-10 -10 -4 0 7 -8 14 -17 17 -10 2 -27 8 -38 12 l-20 8 20 -17 c11 -10 14 -15
8 -11 -13 6 -16 -5 -16 -57 0 -16 -4 -28 -9 -28 -6 0 -8 7 -5 15 8 19 -5 26
-23 14 -11 -6 -11 -9 -2 -9 8 0 5 -8 -8 -22 -11 -12 -20 -26 -20 -30 0 -5 -3
-7 -8 -4 -4 2 -6 -14 -4 -36 3 -28 1 -39 -7 -34 -8 5 -8 0 -1 -20 9 -23 8 -25
-6 -20 -14 5 -15 4 -4 -9 10 -12 7 -18 -19 -32 -17 -10 -31 -21 -31 -25 0 -3
-8 -4 -18 -1 -12 3 -44 -14 -88 -48 -38 -28 -70 -55 -72 -59 -11 -29 -78 -100
-94 -100 -10 0 -21 -7 -24 -15 -4 -8 -10 -12 -16 -9 -5 3 -23 -1 -41 -9 -18
-9 -61 -19 -97 -23 -36 -3 -73 -13 -82 -21 -9 -8 -22 -12 -27 -8 -6 3 -11 0
-11 -7 0 -7 -9 -19 -20 -26 -17 -10 -20 -23 -20 -76 0 -42 4 -66 13 -69 9 -4
9 -6 0 -6 -7 -1 -13 -8 -13 -16 0 -8 6 -15 13 -15 9 0 9 -2 -1 -9 -17 -10 -11
-57 6 -53 23 4 27 4 72 2 l45 -3 -40 -6 c-39 -6 -40 -7 -46 -56 l-6 -50 -1 48
c-2 40 -5 47 -22 47 -18 0 -20 -7 -20 -70 0 -63 2 -70 20 -70 12 0 20 7 21 18
0 10 3 12 6 5 5 -14 54 -17 126 -7 l45 6 4 101 c2 69 7 102 16 105 6 2 12 9
12 16 0 7 9 21 20 31 20 18 20 17 21 -186 1 -159 3 -191 10 -144 7 44 15 64
31 77 24 18 45 14 29 -5 -12 -16 -18 -60 -8 -72 27 -36 57 -88 57 -100 0 -8 4
-15 10 -15 5 0 7 -8 4 -18 -5 -15 -4 -15 10 2 14 18 15 17 13 -8 -1 -15 -9
-31 -17 -37 -11 -7 -7 -8 15 -4 17 3 24 2 17 -1 -6 -3 -10 -10 -6 -15 3 -5 13
-5 24 1 13 7 21 5 31 -7 13 -14 11 -16 -13 -11 -16 3 -28 1 -28 -4 0 -5 -4 -7
-9 -4 -5 4 -7 -3 -4 -14 3 -11 9 -17 14 -14 5 3 7 9 4 14 -5 8 12 12 157 29
88 11 101 10 253 -23 128 -28 228 -16 266 33 l20 25 -33 28 c-28 23 -30 28
-13 28 37 0 147 -62 164 -93 9 -17 28 -44 42 -61 36 -42 66 -105 84 -171 7
-30 17 -59 20 -64 3 -6 1 -28 -4 -50 l-9 -41 73 0 73 0 -5 93 c-4 70 -2 96 9
110 13 18 15 18 51 1 20 -10 37 -22 37 -26 0 -5 6 -8 13 -7 6 1 25 -3 40 -9
16 -7 57 -12 92 -12 35 0 67 -5 70 -10 3 -6 15 -10 26 -10 10 0 19 -4 19 -10
0 -5 6 -7 14 -4 7 3 30 -1 49 -10 20 -8 53 -17 74 -20 119 -19 123 -21 92 -60
l-20 -26 435 0 436 0 0 24 c0 13 -7 29 -16 37 -16 13 -175 205 -188 227 -5 8
-1 21 9 32 15 17 9 28 -123 217 -76 109 -203 294 -281 411 -79 116 -147 212
-151 212 -9 0 -62 131 -56 137 2 2 11 -13 21 -33 9 -19 26 -45 36 -55 25 -25
89 -125 89 -139 0 -9 66 -116 80 -130 3 -3 27 -38 55 -78 27 -40 59 -81 71
-90 11 -9 43 -48 69 -87 46 -66 82 -116 204 -282 45 -62 77 -91 87 -81 1 2 18
64 37 138 20 74 40 148 46 163 7 19 11 163 11 422 l0 394 -52 43 c-28 24 -69
59 -92 79 -23 19 -75 63 -117 96 -139 113 -363 317 -351 321 13 4 58 -31 207
-159 55 -47 150 -125 210 -173 61 -47 127 -100 147 -116 20 -17 39 -30 42 -30
3 0 6 477 6 1060 0 653 -4 1060 -9 1060 -6 0 -49 -25 -97 -55 -86 -54 -112
-65 -99 -45 3 6 1 10 -5 10 -7 0 -10 -7 -7 -14 8 -21 -117 -110 -146 -103 -12
2 -139 34 -282 71 -441 114 -567 146 -579 145 -6 0 27 -12 74 -25z m359 -1760
c13 -9 44 -17 72 -17 27 0 49 -2 49 -4 0 -14 -61 -36 -106 -38 -79 -2 -101
-27 -110 -120 -6 -67 -5 -72 21 -103 15 -18 25 -35 23 -38 -12 -11 -35 9 -57
49 -21 39 -22 46 -11 107 12 67 17 80 57 143 26 42 30 43 62 21z m291 -134 c6
-11 7 -20 3 -20 -4 -1 2 -9 13 -18 19 -16 37 -51 39 -75 0 -4 6 -11 13 -16 7
-4 16 -33 19 -64 5 -45 3 -57 -8 -57 -15 0 -43 28 -46 44 -2 16 -27 25 -40 14
-7 -6 -13 -7 -13 -3 0 4 -6 3 -13 -3 -10 -8 -20 -5 -40 14 -23 21 -27 33 -27
79 0 47 4 58 34 89 38 41 51 44 66 16z m-440 -73 c1 -75 38 -149 90 -178 43
-24 76 -19 50 7 -6 6 -8 17 -5 26 5 11 18 14 63 10 45 -4 64 -11 91 -34 19
-17 54 -38 77 -49 24 -10 44 -23 44 -29 0 -15 -52 -12 -74 5 -23 17 -52 20
-61 5 -3 -6 5 -14 18 -19 32 -13 45 -68 20 -87 -29 -22 -64 -28 -87 -14 -12 8
-39 19 -61 26 -22 6 -39 17 -38 23 2 6 -2 11 -7 11 -6 0 -10 7 -8 16 2 10 -5
18 -17 20 -11 1 -25 11 -33 21 -7 10 -16 16 -20 14 -4 -2 -19 28 -34 65 -23
56 -27 84 -26 146 1 85 18 98 18 15z m-1280 -718 c69 -12 135 -22 148 -21 18
0 22 -6 22 -29 0 -16 -4 -29 -10 -29 -5 0 -7 8 -4 18 5 14 3 13 -10 -3 -9 -11
-24 -29 -33 -40 -10 -11 -16 -29 -14 -39 2 -16 -2 -18 -31 -12 -18 4 -53 9
-78 12 -103 12 -109 14 -103 32 6 14 4 15 -8 5 -8 -6 -39 -13 -69 -15 -51 -3
-56 -1 -86 32 -18 19 -30 39 -27 43 3 5 26 22 51 38 56 35 84 36 252 8z m233
-276 l4 -121 -38 20 c-43 22 -56 60 -44 125 6 34 67 124 71 106 2 -4 4 -63 7
-130z"/>
<path d="M10557 2863 c-3 -2 -47 -6 -98 -9 -52 -3 -127 -9 -167 -15 -40 -5
-77 -9 -82 -9 -17 0 -62 -49 -55 -59 3 -6 1 -11 -6 -11 -20 0 -1 -12 23 -15
34 -4 85 -27 72 -32 -7 -2 -10 -13 -7 -23 3 -13 -6 -34 -23 -58 -16 -21 -20
-31 -9 -22 17 14 18 13 11 -12 -3 -16 -3 -29 1 -30 15 -2 58 -8 103 -12 25 -2
55 -6 67 -9 17 -4 21 -2 16 11 -6 15 -3 14 15 -2 12 -11 22 -14 22 -8 0 6 7 9
15 6 8 -4 12 -11 9 -16 -4 -6 2 -8 12 -6 11 2 18 11 16 19 -3 11 -1 12 9 2 16
-16 33 -17 23 -2 -4 8 1 9 17 4 13 -3 19 -3 13 2 -13 9 -15 45 -2 37 5 -3 15
-1 23 6 7 6 16 7 19 2 7 -11 56 -4 74 11 11 8 11 12 0 18 -9 6 -6 9 10 9 19 0
21 3 12 19 -5 11 -10 29 -10 40 0 12 -4 21 -9 21 -10 0 -8 15 6 75 4 17 6 34
4 39 -1 5 4 13 11 17 15 10 14 10 -74 14 -31 1 -59 1 -61 -2z"/>
<path d="M9000 1698 c0 -304 4 -559 9 -566 13 -22 56 -11 59 16 2 12 8 22 13
22 5 0 9 14 9 32 0 46 15 23 30 -47 15 -66 29 -791 20 -1019 -5 -121 -6 -127
-20 -102 -13 24 -15 26 -21 9 -4 -10 -8 -24 -8 -30 -1 -10 133 -13 640 -13
l641 0 -6 91 c-4 50 -9 95 -12 100 -3 5 -2 24 1 43 7 33 8 34 81 48 123 25
118 30 144 -138 l22 -144 313 0 c238 0 315 3 322 12 6 7 26 49 46 93 l36 80
-17 67 c-13 58 -14 78 -4 140 7 40 15 91 18 113 12 89 65 442 70 465 3 14 2
21 -3 17 -4 -5 -26 -115 -48 -245 -40 -234 -40 -236 -67 -243 -26 -7 -27 -6
-49 87 -18 76 -26 94 -41 94 -10 0 -18 -3 -18 -7 0 -10 -80 -43 -116 -48 -16
-2 -31 -4 -34 -5 -3 -2 -8 -2 -13 -1 -4 0 -6 -4 -5 -11 2 -6 -28 -22 -67 -36
-94 -33 -273 -40 -309 -11 -13 10 -45 22 -72 28 -35 6 12 8 159 4 143 -4 207
-3 207 5 0 5 -9 8 -20 5 -11 -3 -26 -1 -33 4 -6 5 -21 8 -32 6 -84 -13 -93
-12 -99 10 -5 18 -8 20 -16 7 -5 -8 -10 -10 -10 -4 0 18 -62 43 -92 37 -16 -3
-28 -9 -28 -14 0 -5 -7 -9 -16 -9 -9 0 -12 5 -8 12 4 6 3 8 -4 4 -6 -3 -13 -2
-16 3 -4 5 2 12 11 14 12 4 9 5 -7 5 -65 -2 -95 2 -80 12 11 7 6 10 -21 10
-35 0 -80 23 -68 35 4 3 45 1 92 -6 64 -9 88 -9 98 0 52 43 67 60 62 65 -3 3
-12 1 -20 -5 -9 -8 -13 -8 -13 0 0 6 11 13 23 16 29 8 31 32 4 41 -13 4 -23 1
-29 -10 -8 -14 -14 -12 -42 16 -22 21 -33 41 -31 55 1 12 -2 20 -7 17 -12 -8
-59 16 -53 27 3 4 -4 5 -16 2 -12 -3 -16 -9 -10 -12 7 -5 4 -13 -8 -22 -17
-15 -78 -18 -99 -5 -5 3 -15 -1 -22 -9 -9 -10 -9 -15 -1 -15 6 0 11 -5 11 -10
0 -6 -7 -10 -16 -8 -9 2 -20 -4 -24 -12 -4 -8 -11 -24 -17 -35 -11 -21 0 -39
25 -41 37 -3 41 -5 36 -18 -3 -9 5 -18 23 -24 27 -10 26 -11 -17 -12 -25 -1
-49 -2 -53 -1 -47 8 -68 6 -79 -7 -8 -10 -9 -13 -1 -9 13 8 43 -1 43 -13 0 -5
-12 -8 -27 -6 -32 3 -63 -19 -63 -45 0 -16 -9 -18 -77 -16 l-77 2 -9 35 c-5
19 -17 44 -27 55 -11 11 -22 40 -26 65 -9 59 -23 86 -24 45 0 -29 0 -29 -15
-8 -9 13 -17 46 -19 75 -2 29 -7 63 -11 76 -9 26 15 31 35 7 7 -8 16 -15 20
-15 7 0 51 139 69 215 20 89 73 281 84 303 14 29 -4 43 -44 35 -21 -4 -27 -1
-32 19 -9 33 -8 40 3 33 6 -4 8 -10 5 -15 -3 -4 5 -7 18 -7 12 1 32 -2 43 -6
16 -6 24 -3 29 10 10 25 16 146 7 159 -4 6 -29 23 -57 37 -109 57 -110 71 -7
130 150 86 172 98 172 92 0 -3 8 -1 18 4 24 13 51 -4 67 -43 8 -18 33 -46 57
-62 98 -67 344 -237 351 -244 4 -3 14 -48 21 -99 15 -99 16 -101 59 -119 28
-12 29 -12 23 15 -2 16 -8 54 -11 86 l-7 59 74 -49 c40 -27 82 -50 93 -50 11
0 27 -3 35 -7 11 -4 23 6 40 34 14 22 28 40 33 40 4 0 10 8 14 18 16 43 72
105 130 144 34 23 63 43 63 45 0 3 -97 -34 -114 -44 -32 -18 45 52 86 78 26
17 45 35 42 40 -3 5 1 6 9 3 8 -3 18 0 23 7 4 8 3 10 -4 5 -7 -4 -12 -3 -12 2
0 6 7 12 15 16 8 3 15 13 15 22 0 10 3 14 7 11 3 -4 17 8 29 27 20 29 165 136
185 136 4 0 45 18 91 40 82 40 102 46 166 55 18 3 46 12 62 20 41 21 50 18 20
-6 -28 -23 -28 -23 58 16 49 24 62 34 62 52 l0 23 -264 0 -264 0 -4 -25 c-3
-13 -1 -22 3 -19 5 3 9 0 9 -6 0 -6 -7 -13 -15 -16 -8 -4 -13 -10 -10 -14 3
-5 -6 -21 -20 -36 -14 -15 -25 -33 -25 -40 0 -8 -5 -14 -11 -14 -5 0 -8 -4 -5
-8 2 -4 0 -14 -5 -22 -8 -12 -12 -12 -16 -2 -4 10 -8 9 -18 -4 -8 -12 -25 -18
-49 -17 -20 1 -34 -2 -32 -5 2 -4 -6 -8 -17 -8 -12 -1 -50 -7 -84 -13 -37 -7
-71 -8 -85 -3 -12 5 -28 7 -35 5 -14 -5 -99 32 -108 47 -4 6 -12 7 -18 4 -7
-4 -9 -4 -5 0 9 11 -23 46 -35 39 -6 -4 -8 1 -4 10 4 11 1 17 -7 17 -17 0 -48
35 -39 43 3 4 1 7 -6 7 -7 0 -10 4 -6 9 3 5 -2 17 -11 25 -9 9 -13 23 -10 31
5 13 -106 15 -899 15 l-905 0 0 -552z m386 -643 c3 -25 10 -45 15 -45 5 0 9
-7 9 -16 0 -13 7 -15 29 -11 51 11 54 -7 25 -149 -15 -71 -31 -133 -35 -138
-13 -15 -39 95 -39 168 0 42 -6 82 -14 98 -12 23 -20 88 -17 136 2 29 20 -1
27 -43z m255 -171 c1 -44 5 -106 9 -139 5 -33 11 -118 15 -190 7 -125 6 -129
-12 -114 -10 9 -24 14 -32 11 -11 -3 -12 0 -6 14 18 43 17 69 -4 88 -25 22
-28 66 -6 66 16 0 20 16 6 24 -9 6 -7 258 2 291 3 11 6 29 7 40 0 17 2 18 10
4 5 -8 10 -51 11 -95z m715 -322 c-3 -5 7 -7 22 -5 15 2 52 0 82 -4 l55 -8 14
-80 c7 -44 19 -84 25 -88 6 -5 2 -7 -12 -4 -12 3 -61 -1 -108 -10 -47 -8 -88
-13 -90 -11 -6 7 -13 206 -7 212 9 9 25 7 19 -2z"/>
<path d="M11780 1908 c-113 -61 -283 -148 -379 -195 l-174 -86 49 -46 c27 -25
64 -58 81 -73 26 -22 40 -52 77 -165 66 -204 216 -698 285 -938 55 -191 63
-212 93 -238 27 -23 34 -25 46 -13 17 17 16 22 -158 601 -76 253 -159 532
-185 619 -26 88 -51 166 -55 175 -18 35 -40 90 -40 100 0 8 -6 9 -19 1 -23
-12 -51 -13 -51 -2 0 10 195 112 214 112 25 0 19 -18 -11 -34 -18 -10 -22 -15
-12 -16 9 0 19 -6 22 -14 6 -15 47 -29 47 -15 0 5 6 9 14 9 13 0 13 -4 0 -27
-18 -36 -18 -54 2 -46 12 4 14 0 9 -19 -4 -16 18 -87 71 -228 147 -392 238
-648 267 -755 l25 -90 1 331 c1 271 -2 339 -14 374 -8 23 -15 44 -15 46 0 2 7
4 15 4 13 0 15 48 15 370 0 204 -3 370 -7 369 -5 0 -100 -50 -213 -111z"/>
<path d="M10134 1642 c-3 -20 -10 -55 -14 -77 -5 -22 -8 -40 -7 -42 3 -2 154
-72 235 -108 34 -15 64 -26 67 -24 2 3 -10 40 -27 82 -31 77 -32 78 -102 119
-39 22 -88 51 -108 64 l-37 24 -7 -38z"/>
<path d="M10100 1494 c0 -2 -16 -66 -36 -142 -65 -245 -63 -238 -41 -251 10
-7 16 -15 13 -18 -3 -3 -12 0 -21 7 -12 10 -16 8 -25 -15 -5 -14 -10 -30 -10
-35 0 -4 -7 -21 -15 -36 -20 -38 -19 -61 3 -67 9 -3 34 -12 54 -21 32 -14 37
-14 32 -1 -4 8 -1 15 6 15 6 0 14 -9 17 -19 5 -19 60 -43 134 -56 34 -6 37 -5
56 32 11 21 31 61 45 88 29 55 30 80 8 239 -10 73 -10 90 1 97 7 4 18 4 24 0
23 -16 55 1 55 30 0 15 -18 28 -75 55 -41 19 -109 49 -150 68 -41 19 -75 33
-75 30z"/>
<path d="M4717 742 c-24 -37 -33 -42 -144 -76 -65 -20 -135 -43 -155 -50 -42
-16 -37 -20 -92 72 -46 76 -61 76 -19 0 17 -29 28 -58 26 -64 -2 -7 10 -25 27
-42 40 -40 101 -50 169 -28 28 9 58 16 67 16 23 0 94 76 118 126 10 21 23 47
28 57 18 36 1 27 -25 -11z"/>
<path d="M7710 577 l-44 -103 -169 -37 c-93 -21 -171 -37 -172 -35 -2 2 -24
45 -49 96 -25 50 -48 92 -50 92 -3 0 3 -28 13 -62 10 -35 17 -72 15 -83 -3
-22 14 -47 27 -39 5 3 9 0 9 -6 0 -6 5 -8 11 -5 6 4 9 0 7 -11 -2 -11 6 -23
19 -29 13 -7 21 -14 19 -16 -3 -2 25 -3 61 -2 54 2 81 10 158 47 91 43 93 46
120 102 32 67 76 186 71 191 -2 2 -23 -43 -46 -100z"/>
<path d="M195 653 c-11 -1 -59 -5 -107 -8 l-88 -7 0 -155 0 -155 43 6 c23 3
71 8 105 12 35 4 66 12 68 18 3 7 3 75 2 151 -3 133 -4 140 -23 138z"/>
<path d="M1616 118 c-15 -98 -16 -119 -6 -113 5 3 10 28 10 55 0 27 4 51 9 54
5 3 102 -17 217 -44 138 -34 217 -49 237 -44 39 8 24 20 -43 33 -30 6 -104 22
-165 36 -60 15 -121 28 -135 31 -14 3 -43 9 -65 14 -55 13 -54 14 -59 -22z"/>
</g>
</svg>
