<svg xmlns="http://www.w3.org/2000/svg" viewBox="0 0 640 640"><defs><style>.cls-1{fill:#619599;}.cls-2{fill:#304352;}.cls-3{fill:#e44c65;}.cls-4{fill:#f5f5f5;}.cls-5{fill:#aeecf2;}.cls-6,.cls-7,.cls-8{fill-opacity:0;stroke:#000;}.cls-6{stroke-width:3px;}.cls-7{stroke-width:2px;}</style></defs><g id="bg"><path id="a1e6b12xZ" class="cls-1" d="M640.88,322c0,176.6-143.4,320-320,320S.88,498.58.88,322,144.27,2,320.88,2,640.88,145.36,640.88,322Z" transform="translate(-0.88 -1.98)"/></g><g id="mask"><path id="e2bJMV0xSW" class="cls-2" d="M149.22,207.36,393.27,479.62h-244Z" transform="translate(-0.88 -1.98)"/><path id="b3wlcMmxZ" class="cls-3" d="M164.85,191.7,408.9,464h-244Z" transform="translate(-0.88 -1.98)"/><path id="b7gSJ29NF0" class="cls-4" d="M180.48,176,427.53,445.56l-243.9,2.73Z" transform="translate(-0.88 -1.98)"/><path id="dtkFytJxk" class="cls-5" d="M196.1,160.38,440.16,432.64H196.1Z" transform="translate(-0.88 -1.98)"/><path id="bK7nYKh8f" class="cls-4" d="M225,244.06,371.57,407.41H225Z" transform="translate(-0.88 -1.98)"/><path id="bK7nYKh8f-2" data-name="bK7nYKh8f" class="cls-6" d="M225,244.06,371.57,407.41H225Z" transform="translate(-0.88 -1.98)"/><path id="fgCcJm1VF" class="cls-7" d="M344.64,407.41,225,275.9" transform="translate(-0.88 -1.98)"/><path id="ahjIKLuKJ" class="cls-7" d="M312.72,407.41,225,312.16" transform="translate(-0.88 -1.98)"/><path id="b20SXxi9T" class="cls-7" d="M279.72,407.41,225,348.84" transform="translate(-0.88 -1.98)"/><path id="c2VqMRGg7u" class="cls-7" d="M247.26,407.41l-22.3-25" transform="translate(-0.88 -1.98)"/></g><g id="elastic"><path id="c1uqZ9zVlf" class="cls-8" d="M214.34,180.16h72.53l4.55-19.78" transform="translate(-0.88 -1.98)"/><path id="c3iOnL9JA8" class="cls-8" d="M420.84,410.4H529.22l-4.11,22.24" transform="translate(-0.88 -1.98)"/><path id="a2k4B9NB68" class="cls-6" d="M525.11,432.64H440.17" transform="translate(-0.88 -1.98)"/><path id="d3nc189skJ" class="cls-6" d="M291.42,160.38H196.1" transform="translate(-0.88 -1.98)"/></g></svg>