<svg id="Layer_1" data-name="Layer 1" xmlns="http://www.w3.org/2000/svg" viewBox="0 0 500.6 421.5"><defs><style>.cls-1{fill:#304352;}.cls-2{fill:#e44c65;}.cls-3{fill:#f5f5f5;}.cls-4{fill:#aeecf2;}.cls-5,.cls-6,.cls-7{fill-opacity:0;stroke:#000;}.cls-5{stroke-width:3px;}.cls-7{stroke-width:2px;}</style></defs><path id="e2bJMV0xSW" class="cls-1" d="M0,63.31,321.12,421.5H0Z"/><path id="b3wlcMmxZ" class="cls-2" d="M20.56,42.71,341.69,400.9H20.56Z"/><path id="b7gSJ29NF0" class="cls-3" d="M41.13,22.1,366.2,376.69,45.27,380.28Z"/><path id="dtkFytJxk" class="cls-4" d="M61.69,1.5,382.81,359.69H61.69Z"/><path id="d3nc189skJ" class="cls-5" d="M187.11,1.5H61.69"/><path id="a2k4B9NB68" class="cls-5" d="M494.59,359.69H382.83"/><path id="c1uqZ9zVlf" class="cls-6" d="M85.68,27.53h95.45l6-26"/><path id="c3iOnL9JA8" class="cls-6" d="M357.39,330.43H500l-5.41,29.26"/><path id="bK7nYKh8f" class="cls-3" d="M99.66,111.59,292.57,326.5H99.66Z"/><path id="bK7nYKh8f-2" data-name="bK7nYKh8f" class="cls-5" d="M99.66,111.59,292.57,326.5H99.66Z"/><path id="fgCcJm1VF" class="cls-7" d="M257.13,326.5l-157.47-173"/><path id="ahjIKLuKJ" class="cls-7" d="M215.14,326.5,99.66,201.18"/><path id="b20SXxi9T" class="cls-7" d="M171.71,326.5,99.66,249.44"/><path id="c2VqMRGg7u" class="cls-7" d="M129,326.5,99.66,293.61"/></svg>